# xmcd
#
# Track frame offsets:
#	150
#	18802
#	31610
#	51406
#	69282
#	82125
#	97644
#	114617
#	129488
#	147970
#	161487
#	179038
#
# Disc length: 2608 seconds
#
# Revision: 1
# Processed by: cddbd v1.5.2PL0 Copyright (c) Steve Scherf et al.
# Submitted via: audiograbber 1.83.01
#
DISCID=970a2e0c
DTITLE=Trisha Yearwood - Icon
DYEAR=2010
DGENRE=Country
TTITLE0=She's In Love With The Boy
TTITLE1=Wrong Side Of Memphis
TTITLE2=Walkway Joe
TTITLE3=The Song Remembers When
TTITLE4=XXX's and OOO's (An American Girl)
TTITLE5=Thinkin' About You
TTITLE6=Believe Me Baby (I Lied)
TTITLE7=Everybody Knows
TTITLE8=How Do I Live
TTITLE9=Perfect Love
TTITLE10=There Goes My Baby
TTITLE11=I Would've Loved You Anyway
EXTD=
EXTT0=
EXTT1=
EXTT2=
EXTT3=
EXTT4=
EXTT5=
EXTT6=
EXTT7=
EXTT8=
EXTT9=
EXTT10=
EXTT11=
PLAYORDER=
